<?xml version="1.0" encoding="UTF-8"?>
<svg version="1.1" viewBox="0 0 2666.7 2666.7" xmlns="http://www.w3.org/2000/svg">
<path d="m992 2319.8-4.6667-1.3261-8.3937-6.3681-5.6724-11.718-0.20986-313.25 5.5846-10.947 8.6913-6.5592 5.3333-1.4569 5.3333-1.4568 26.667 0.102 5.0883 1.8147 5.0882 1.8147 5.4406 4.9202 5.0496 9.8938v5.4395h1.5132l15.019-12.235 8.7912-4.4272 8.7912-4.4271 19.885-6.2444 38.667 0.02 21.333 6.1182 10.92 5.2642 10.92 5.2643 10.004 8.0476 10.004 8.0477 10.729 13.475 7.2808 11.549 7.2807 11.549 6.689 20 5.7732 28-0.6574 18.667-0.6573 18.667-5.6844 25.333-11.718 24.456-9.7634 15.263-13.616 14.396-17.504 12.966-9.3334 4.6567-9.3333 4.6566-9.3333 2.9688-9.3334 2.9687-37.484 1.322-11.258-2.84-11.258-2.8401-24.225-12.006-10.991-9.4077-0.3922 51.82-0.3922 51.82-7.1542 10.806-14.036 6.9944-14.072-0.1202-14.072-0.1203zm128.41-163.09 7.6358-1.9888 12.627-6.3988 13.724-14.511 3.4799-6.8674 3.48-6.8673 3.9778-15.272v-18.879l-4.1386-15.894-4.2641-8.4629-4.264-8.4629-12.579-12.835-14.088-6.8818-16-2.9876-18.766 1.5485-11.901 4.1552-13.737 9.4035-3.7611 5.595-3.7611 5.5949-6.005 7.4554-5.4028 17.492v26.105l2.679 8.6737 2.6791 8.6737 10.729 16.067 9.3201 8.1831 11.259 5.8191 13.333 3.3038 16.106 0.2268zm-936.48 69.933-11.402-1.0172-11.631-2.1794-11.631-2.1795-23.267-8.1448-20.972-10.422-18.013-11.975-8.8095-9.3385-8.8095-9.3386-2.7715-5.4326-2.7715-5.4327-1.5141-12.784 3.4122-10.339 13.696-13.361 17.705-8.9738 6.0111-0.6776 6.0111-0.6775 3.6234 0.9094 3.6234 0.9095 17.579 16.763 7.2544 5.6468 7.2544 5.6469 6.0789 3.075 6.0789 3.0751 9.1552 2.823 9.1552 2.8231 11.964 1.3553 11.964 1.3554 10.214-1.2902 10.214-1.2901 8.9438-2.7727 8.9438-2.7726 11.446-8.6326 5.8869-11.631 1.789-11.93-3.1295-10.445-8.1078-9.2344-8.2193-3.9922-8.2193-3.9923-74.667-19.942-29.143-10.832-8.4106-4.7034-8.4106-4.7035-19.532-15.521-9.352-14.368-3.6938-8.6666-3.6938-8.6667-1.882-9.784-1.882-9.7839 0.0186-23.099 5.2589-21.936 7.7564-17.106 10.728-14.522 12.567-11.062 14.491-9.6188 20.196-9.3312 12.159-3.0763 12.159-3.0762 15.293-1.6086 15.293-1.6085 13.886 0.9464 13.886 0.9465 26.976 6.0982 23.831 9.6124 18.836 11.121 20.189 20.221 5.8111 12.175v11.65l-5.5728 11.512-9.7606 8.046-20 10.29-9.9605 1.7743-10.771-2.9002-10.968-10.002-10.968-10.002-8-3.9482-8-3.9483-20-4.2423-28 1.3087-14.667 5.5658-5.0387 4.1561-5.0387 4.156-5.2559 10.302v14.905l1.881 3.6005 1.881 3.6004 7.5808 7.2026 17.324 7.7932 40 12.016 17.333 4.6004 17.333 5.325 17.333 5.3251 23.86 11.82 7.3048 5.6258 7.3047 5.6259 11.694 14.667 6.8881 13.333 6.6251 18.667 0.6437 16.703 0.64371 16.703-4.4712 22.594-11.804 24-12.385 15.519-8.8183 6.6966-8.8183 6.6965-13.365 6.5442-13.365 6.5441-25.526 6.4752-30.411 2.8487-10.667-0.3628zm1188.2-0.81-12.569-1.9372-29.529-9.4882-9.4498-4.3342-9.4499-4.3343-9.8835-6.6777-9.8834-6.6777-20.518-21.501-5.909-11.518 0.3404-13.936 2.8142-5.5163 2.8143-5.5163 11.487-11.164 16.389-8.7353 14.56-1.5027 5.8075 2.2179 5.8074 2.2179 13.17 12.728 13.17 12.728 9.3667 4.4292 9.3667 4.4293 10.667 2.4352 10.667 2.4353 34.667-0.1 15.625-5.7176 14.54-11.218 1.9888-3.8458 1.9888-3.8459 0.7593-6.4114 0.7593-6.4115-3.3164-10.049-4.7482-5.2556-4.7481-5.2556-4.7576-2.3964-4.7576-2.3965-26.667-8.128-16-3.8766-33.333-9.4506-26.183-9.5098-8.5408-4.0761-8.5408-4.0762-9.7196-6.5008-9.7196-6.5009-9.2928-11.562-8.5723-12.46-2.9667-8.4367-2.9668-8.4367-0.5472-22.188-0.5471-22.188 2.8063-11.098 2.8064-11.098 7.736-16.532 20.914-21.906 15.634-10.628 17.428-7.9023 29.604-7.7113 15.333-1.1883 15.333-1.1882 20 1.0226 10 2.0149 10 2.015 20 5.3 10 4.218 10 4.2181 9.3333 6.3747 9.3333 6.3748 8.0876 7.7209 8.0875 7.7209 7.5099 12.815-1.3844 17.247-7.007 10.588-12.627 9.2487-8.6667 3.6005-8.6666 3.6004-14.694 0.17-14.64-8.948-13.977-13.137-17.595-8.2338-12.214-1.2744-12.214-1.2745-20 1.477-12.519 4.3021-5.9054 5.1982-5.9054 5.1981-2.1686 4.5699-2.1685 4.5699v12.37l2.6543 5.203 2.6544 5.2029 8.8079 6.7181 43.626 14.988 46.924 12.792 4.2461 0.9152 4.246 0.9153 18.421 9.1492 18.421 9.1493 11.473 9.8552 13.377 19.823 7.5866 17.849 3.2076 17.333-0.1288 13.454-0.1288 13.454-1.9652 9.2128-1.9653 9.2128-2.3945 6.6667-2.3946 6.6666-4.6666 8.6151-4.6667 8.615-7.0609 7.629-7.061 7.629-10.736 6.8872-10.736 6.8871-14.928 6.6018-20.144 6.6002-29.164 3.869-36.17-0.2617zm817.9 0.1409-10.667-1.9914-13.333-4.3281-28.32-14.138-9.84-7.9558-9.8399-7.9558-9.7837-11.822-11.865-18.418-3.0546-6-3.0545-6-3.2471-12-3.247-12-0.7158-20.227-0.7158-20.227 4.6442-30.213 4.2339-10 4.234-10 4.418-8.6666 4.4181-8.6667 28.402-27.744 17.46-11.225 23.874-9.4232 12.977-2.8037 12.977-2.8036h30.355l14.792 3.3391 14.792 3.3392 22.685 8.2082 8.0634 5.4144 8.0633 5.4144 8.4216 8.9273 8.4216 8.9274 3.5597 7.1434 3.5597 7.1435v10.634l-2.658 5.4908-2.6581 5.4908-8.3419 6.0981-8.342 6.098-8 3.9727-8 3.9726-10.26 1.5934-5.035-2.0146-5.0351-2.0147-7.754-8.7773-7.754-8.7774-16.262-7.6099-19.997-1.6904-14.57 3.1089-8.4598 4.2416-8.4597 4.2415-3.9715 4.0423-3.9715 4.0422-10.292 15.37-4.2926 14.766-0.3624 25.864 2.3606 7.9599 2.3607 7.9598 2.4368 4.7765 2.4367 4.7764 6.212 6.9092 6.2119 6.9092 20.319 10.042h32.138l16-7.8498 9.6519-9.6786 9.6519-9.6785 4.8323-0.9066 4.8322-0.9065 7.5159 2.0985 7.5158 2.0986 11.836 6.6459 11.836 6.646 6.8894 11.531-0.07 13.333-3.5918 7.4888-3.5917 7.4888-23.688 22.835-27.979 13.666-24.974 5.3741-38.667 1.0808zm-1440.5-1.4094-8.533-1.8664-22.961-10.132-16.553-11.241-12.753-12.794-11.134-14.499-9.3628-15.561-8.3946-23.105-1.8231-9.4468-1.8231-9.4469-1.7822-23.773 1.5572-14.405 1.5572-14.405 6.7097-23.19 9.4837-18.667 5.9522-9.216 5.9522-9.2159 13.774-13.202 13.333-9.9067 17.333-9.6288 24-7.3202 41.333-0.178 9.953 3.1253 9.953 3.1254 16.094 8.0986 15.029 12.984h1.3411l1.6695-8.8994 9.2843-10.847 12.485-4.254 26.858 0.02 10.607 2.9446 9.7673 9.7673 2.9446 10.607 0.014 211.42-4.1017 9.8167-4.565 5.048-5.3333 2.8351-5.3333 2.835-34.667 0.046-12.756-6.2811-5.2441-10.279v-5.2822l-2.7258-1.6846-13.759 12.37-24.182 11.663-20.554 4.1606-15.056-0.1338-15.056-0.1339zm62.876-70.852 8.4504-3.9544 4.7667-4.1853 4.7667-4.1852 9.74-14.142 6.544-18.547 0.0123-12.667 0.0123-12.667-3.7301-14.012-9.8011-17.988-11.104-11.49-17.333-8.5104h-33.377l-8.7458 4.3025-8.7458 4.3024-14.838 15.556-7.9598 15.839-1.5004 7.0656-1.5004 7.0657v17.975l4.0812 15.894 6.7813 13.999 13.559 14.836 13.316 6.7478 16.262 3.7077 21.892-0.9893zm850.86 71.749-6.7972-1.0895-10.054-3.318-20.897-9.8224-7.9813-9.041-7.9812-9.0411-7.935-19.118-2.2103-10.667-2.2104-10.667-1.3692-118.67-1.1912-1.2012-25.91-1.6318-8-4.247-2.9198-3.1272-2.9197-3.1272-1.4998-6.6662-1.4999-6.6661 0.9264-11.333 0.9263-11.333 1.2448-3.3333 1.2447-3.3333 3.5818-3.7857 3.5819-3.7857 3.6004-1.881 3.6005-1.881h21.248l4.2181-1.6186 0.044-14.857 0.044-14.857 2.3322-18.091 7.0684-9.2672 10.317-5.2633 19.529-5.162 12.725-1.7222 14.065 4.0887 5.7493 6.1199 4.2866 10.259-0.9298 20.331-0.9299 20.332 0.9106 4.854 0.9106 4.8539h42.81l8.6432 4.1015 5.3387 7.2319 1.7548 5.3256 1.7547 5.3256 0.1225 13.438 0.1224 13.438-3.7635 5.6875-3.7636 5.6875-11.14 4.7796-41.02 1.5599-0.8235 0.823-0.8235 0.8229v105.78l2.6667 5.2473 2.6666 5.2473 7.5262 5.5054 35.614 1.3334 3.7631 2.7847 3.7631 2.7848 3.2997 5.8819 3.2998 5.8819 0.5158 13.605 0.5159 13.605-5.9042 12.196-8.3937 6.3375-14.667 4.4272-36 1.0158zm323.56-0.2131-5.8998-1.1576-13.534-4.3782-9.6062-5.2339-9.6061-5.234-10.879-12.359-9.3159-18.854-5.5716-25.333-0.4542-39.333-0.4541-39.333-0.057-20.333-0.057-20.333-19.333-0.02-9.9172-2.7542-8.1786-6.8819-4.4862-8.349 0.1175-14.016 0.1175-14.016 2.9227-6.7941 2.9228-6.794 4.2275-3.1256 4.2275-3.1255 28.046-1.9596 0.7706-0.168-0.616-42 5.8282-11.193 5.6752-3.8951 5.6753-3.895 20-7.2936 24.436-0.3896 7.3997 5.4981 2.7491 3.6783 2.749 3.6782 0.8614 54.314 1.5929 1.322 1.593 1.3221 44.434 0.8542 7.5188 5.602 8.541 14.398 0.1994 5.3333 0.1994 5.3334-1.3732 6.6666-1.3732 6.6667-2.6102 6-2.6103 6-4.0553 3.8225-4.0554 3.8225-22.249 2.2551-19.947-0.28-3.0434 0.19-3.0433 0.1899 0.3767 53.667 0.3767 53.667 2.6666 5.3334 2.6667 5.3333 11.898 6h31.075l7.0282 5.5284 7.3314 12.472 0.4663 16.182 0.4663 16.182-5.042 5.5809-5.042 5.5808-4.7576 2.4209-4.7576 2.4208-19.178 2.9652-30.156-0.2921zm-188.44-2.5609-7.6686-0.971-10.61-7.0214-6.0526-11.33v-213.33l2.456-6.366 2.4561-6.366 5.9713-4.5595 5.9714-4.5594 14.12-3.1598 25.772 1.9322 12.552 8.4118 6.7016 12v213.33l-2.8843 6.2411-2.8842 6.2411-5.6065 4.0614-5.6065 4.0613-4.176 0.6273-4.1759 0.6272-9.3333 0.5506-9.3333 0.5505zm583.67 0.176-4-1.0527-4.2282-2.2029-4.2283-2.203-2.8664-4.0254-2.8664-4.0255-1.2694-4.328-1.2695-4.328 0.08-316 1.1996-5.0684 1.1995-5.0684 3.125-4.6181 3.125-4.618 5.4209-2.6469 5.421-2.6468 33.158 0.026 13.599 6.332 2.7161 3.821 2.716 3.821 2.9544 10.667 0.01 48.891 0.01 48.891 0.7891 2.0565 0.7892 2.0565 19.088-12.914 10.667-5.2815 13.333-4.1438 10.044-1.6841 31.29-0.046 13.234 3.4033 13.234 3.4034 6.7662 3.5356 6.7662 3.5357 13.733 11.727 6.8376 9.8908 6.8375 9.8909 3.8067 7.7277 3.8066 7.7277 3.0716 11.333 3.0717 11.333 0.5115 78.262 0.5116 78.262-5.2859 11.95-5.362 3.5485-5.3621 3.5484-18.178 2.2988-20.146-1.07-7.8538-2.9682-3.7857-3.5818-3.7857-3.5819-4.4286-8-0.767-66.667-0.7671-66.667-4.4546-16.751-2.66-5.2141-2.66-5.2142-4.3516-3.319-4.3515-3.3191-7.4988-2.851-17.823-3.711-6.7595 1.0712-6.7596 1.0711-4.6734 1.9527-4.6734 1.9526-13.688 9.8336-5.2196 8.4978-3.0737 8.6667-3.0737 8.6666-1.4128 132-4.4404 8-2.9686 3.147-2.9687 3.1469-4.8111 2.0659-4.8112 2.0659-29.333 0.7926zm-1985.7-1.4708-4.3525-1.0324-10.838-7.172-5.0654-11.157-0.0293-107.38-0.0293-107.38 3-5.9314 3-5.9313 5.7795-4.0179 5.7795-4.0178h36.441l7.2288 2.0246 9.1885 9.461 3.4197 11.582 6.0815-5.1034 6.0815-5.1033 17.333-9.7652 20-6.7352 27.253-1.4058 20.747 3.3326 20.728 7.5491 18.53 12.319 5.4422 6.2559 5.4422 6.256 13.118 26.667 5.26 22.667 1.4991 13.333 1.4991 13.333-0.43884 63.333-0.43883 63.333-4.9174 11.299-9.0224 7.9218-11.368 3.0923-29.361-1.2666-10.639-5.4298-4.565-5.048-4.1017-9.8167-0.0101-61.043-0.0101-61.043-1.3602-8.3822-1.3602-8.3821-5.5328-14.788-8.1532-9.286-6.12-3.0918-6.12-3.0919-7.8444-1.6206-7.8444-1.6207-7.1277 0.8906-7.1276 0.8905-7.9892 3.9923-7.9892 3.9922-10.5 11.928-7.5778 17.902-1.3333 133.33-2.1677 4.7664-2.1677 4.7663-5.0618 4.1724-5.0618 4.1723-13.006 2.7892-10.934-0.1364-10.934-0.1365zm1405.7-277.38-6.6512-1.1859-9.4637-4.8035-9.4636-4.8036-2.8474-6.521-2.8474-6.5211-1.5457-6.1384-1.5456-6.1383 1.2876-17.996 4.2921-8.9933 4.2922-8.9934 12.477-9.2222 14.529-4.3425 10.736 0.6749 10.736 0.675 5.0141 2.101 5.0141 2.1011 14.365 13.586 6.1332 13.872 0.03 16-2.4921 7.3333-2.492 7.3334-9.3025 14.028-8.1353 3.9553-8.1353 3.9552-17.333 1.2304zm-509.35-194.14-5.3333-0.5369-33.333-4.0315-15.671-2.6567-15.671-2.6568-32.658-7.7921-34.667-10.475-40-15.401-34.036-15.579-14.982-8.1749-14.982-8.175-9.0416-5.847-9.0416-5.8471h-520.03l-19.677-4.0644-9.1878-3.7887-9.1878-3.7888-17.737-11.202-18.942-20.283-13.084-26.873-2.714-11.503-2.714-11.503 0.34444-469.83 0.34445-469.83 3.641-10.667 3.641-10.667 12.718-22.667 21.334-21.333 17.333-10.065 25.333-8.3713 38-1.1938v-40.477l4.0289-15.468 6.8672-11.718 13.183-11.853 13.921-4.8546h173.33l15.204 6.1433 12.905 11.603 7.0964 14.493 2.7736 17.094 0.0101 17.737 0.0101 17.737 130-0.88427 15.125-5.7071 14.209-9.1144 9.6492-10.72 9.2406-15.767 12.353-30.614 25.692-69.333 10.343-22.249 11.828-16.417 16.895-16.348 7.0283-4.7426 7.0284-4.7426 7.1289-3.3725 7.129-3.3726 21.019-6.0884h458.67l18.667 4.9496 24 11.473 9.2986 7.8237 9.2985 7.8237 15.647 18.597 11.526 24 33.823 90.667 5.8824 12.298 5.8823 12.298 15.991 17.094 19.452 9.6113 14.23 2.6986h129.05l0.7289 1.8993 0.7288 1.8993 8.4587-1.1402 23.366-0.72391 27.956-37.268v-4l-25.983-19.267-36-18.523-28-8.309-22.349-3.9011-22.984 0.0466-23.356 3.8286-21.978 5.7871-22.667 11.278-9.0278 1.7322-10.289-2.7705-6.69-7.2149-2.8096-8.5133 1.4735-5.4723 1.4736-5.4723 7.2024-7.8606 28-12.311 21.333-6.2125 24-4.7983 49.333 0.016 25.333 4.7121 16 4.9858 32 13.715 18.667 10.97 20 13.318 12.37 10.238h1.7184l26.283-24.878 14.577-9.6759 14.384-5.8523 18.667-0.20258 12.03 5.5107 4.1323 4.1323 4.1322 4.1323 5.7542 12.242 0.8004 7.6571 0.8003 7.6571-1.622 7.9724-1.6221 7.9724-5.2427 11.27-5.2428 11.27-20.354 33.177 2.5161 1.8398 2.516 1.8398 18.388-0.73078 2.282-6h92.973l21.093 5.3069 25.233 12.424 24.37 24.27 10.927 18.667 4.4015 12.667 4.4014 12.667 0.6926 938.31-5.4632 23.003-6.5089 13.626-6.509 13.626-11.106 11.147-11.106 11.147-21.781 12.418-20.886 7.3881-513.33 1.3333-26.667 17.081-50.667 24.747-44.355 17.29-21.851 6.9028-41.794 10.42-21.333 4.2086-20.667 2.7958-20.667 2.7957-90.667 0.8016zm-115.33-82.506v-0.6667h-1.3334v1.3334h1.3334zm-4-1.3333v-0.6667h-1.3334v1.3333h1.3334zm-3.1111-1.5556-0.8889-0.8889-1.7778 1.7778h3.5555zm333.78 0.2222v-0.6666h-1.3333v1.3333h1.3333zm-337.78-1.5555-0.8889-0.8889-1.7778 1.7778h3.5555zm65.333-21.333-0.8889-0.8889-1.7778 1.7778h3.5556zm225.11-2.6145 5.3333-1.7773-9.5245 1.3124-11.809 3.8257 10.667-1.5835zm-238-0.5933-8.6667-2.5595-3.7777-0.02 0.6269 0.627 0.627 0.627 7.2619 1.9519 7.2619 1.952 5.3334-0.028zm245.33-1.9033v-0.6667h-1.3333v1.3334h1.3333zm-258.67-1.3333v-0.6667h-1.3334v1.3333h1.3334zm407.33-24.667 0.8241-1.3333h-1.3334l-0.824 1.3333-0.8241 1.3333h1.3334zm-563.33-7.3333v-0.6667h-1.3334v1.3333h1.3334zm508-5.4272v-0.6666l-5.3334 2.8543v1.3333l2.6667-1.4272 2.6667-1.4271zm-445.33-1.2395v-0.6667h-1.3333v1.3334h1.3333zm448 0v-0.6667h-1.3333v1.3334h1.3333zm-452-2.6667v-0.6666h-1.3333v1.3333h1.3333zm-12-6.6666v-0.6667h-1.3333v1.3333h1.3333zm-160-1.3334v-0.6666h-1.3333v1.3333h1.3333zm157.33 0v-0.6666h-1.3334v1.3333h1.3334zm-162-6-0.82404-1.3333h-2.6667l0.82405 1.3333 0.82404 1.3334h2.6667zm818.28-8.6666 1.3818-2.6667-10.993 10.541v2.6244l8.2294-7.8323zm-824.28 2.9161v-0.4172l-4.248-3.9161-4.248-3.9162 6.496 8.5192 2 0.148zm-451.11-12.472-0.88889-0.8889-1.7778 1.7778h3.5556zm511.11-11.778v-0.6666h-1.3333v1.3333h1.3333zm-5.3333-5.2546v-0.588l-1.5393-0.9513-1.5394-0.9514 0.95137 1.5393 0.95137 1.5394h1.176zm670-12.745 0.824-1.3333h-1.3333l-0.8241 1.3333-0.824 1.3334h1.3333zm4-4 0.824-1.3333h-1.3333l-0.8241 1.3333-0.824 1.3334h1.3333zm-636.67-0.46v-0.46l-6-5.08 5.0799 6h0.9201zm63.779-58.042 1.7794-1.1279-2.7794-0.7268-2.7793-0.7268v3.7503l2-0.04zm514.85-2.4979-0.04-3.6666-1.3591 2.3333-1.359 2.3333-2.2671 0.021-2.2671 0.02 4 2.585 3.3333 0.04zm159.91-0.9076-0.6378-0.6377-1.7652 2.9393-1.7652 2.9394 4.806-4.6032zm-802.39-13.759-1.2825-2.3334-2.1713-2.6666-2.1712-2.6667 1.5838 3.3333 1.5838 3.3334 1.3197 1.6666 1.3197 1.6667h1.1006zm219.41 1.4444-0.8889-0.8889-0.8889 0.8889-0.8888 0.8889h3.5555zm8.4445-1.1111v-0.6667h-1.3334v1.3334h1.3334zm6.6666-1.3333v-0.6667h-1.3333v1.3333h1.3333zm-244-13.333v-0.6666h-1.3333v1.3333h1.3333zm447.56-2.8888-0.8889-0.8889-0.8889 0.8889-0.8889 0.8888h3.5556zm258.39-17.096 0.6714-8.0152-1.8923 8.6667-1.8924 8.6667 0.064 6.6666 1.1885-3.9848 1.1886-3.9849zm-294.39 10.429-0.8889-0.8889-1.7778 1.7778h3.5556zm-330.64-6.0278-0.7002-1.75-0.1053 2.5556-0.1053 2.5555 0.8056-0.8055 0.8055-0.8056zm-1.3333-6.6667-0.7003-1.75-0.1052 2.5556-0.1053 2.5556 0.8056-0.8056 0.8055-0.8056zm682.64-51.306-0.8889-0.8889v3.5556l1.7778-1.7778zm-694.22-22.444v-0.6666h-1.3333v1.3333h1.3333zm277.37-4.5924-1.3874-2.5924-3.0644-1.8938 1.0803 1.8726 1.0803 1.8727 1.289 1.6667 1.289 1.6666h1.1006zm-233.8-9.6576-0.7003-1.75-0.1052 2.5556-0.1053 2.5556 0.8056-0.8056 0.8055-0.8056zm-1.3611-8.0833-0.6725-1.6667v6.6667l0.6725-1.6667 0.6725-1.6666zm564.45 2.3333v-0.6666h-1.3333v1.3333h1.3333zm-290.73-42.412 0.06-1.0787-1.4155 0.8749-1.4156 0.8749-1.0731 2.8705-1.073 2.8704-0.8857 3.3334-0.8856 3.3333 6.628-12zm26.727-41.843v-2.0973l-5.8253-9.6481-5.172-6.6666 1.0238 3.3333 1.0239 3.3333 3.1415 4.1259 3.1414 4.1258v7.239l2.6667-1.648zm-14.504-10.01-1.0844-2.9314-1.5653-0.5217-1.5653-0.5218 3.1466 6.9062h2.1527zm141.84-98.402 0.8241-1.3334h-1.3333l-0.8241 1.3334-0.824 1.3333h1.3333zm249.33-52-0.9204-4.1907-0.6667 0.6666-0.6667 0.6667 0.9205 4.1907 0.9204 4.1907 0.6666-0.6667 0.6667-0.6667zm-762.44-2.2223-0.88889-0.8888v3.5555l1.7778-1.7778zm760.44-5.1111v-0.6666h-1.3333v1.3333h1.3333zm-840-9.3333v-0.6667h-1.3333v1.3334h1.3333zm0.91082-4.9167-0.70029-1.75-0.10527 2.5556-0.10526 2.5555 0.80556-0.8055 0.80555-0.8056zm1.3333-5.3333-0.70029-1.75-0.10526 2.5556-0.10527 2.5555 0.80556-0.8055 0.80556-0.8056zm4.9214-13.083 0.82852-3.3334-2.5648 5.3334-2.5648 5.3333 0.02 4 1.7264-4 1.7264-4zm916.27-8.7831-1.9114-5.2169-0.188 2.9354 2.975 8.534 1.0356-1.0356zm-4.2531-13.063-2.1461-6.2984-0.5128 0.5129-0.5128 0.5128 2.146 6.2984 2.1461 6.2983 1.0256-1.0256zm-521.85 3.8462v-0.6667h-1.3333v1.3333h1.3333zm383.83-21.333 0.087-2.6667-1.1439 2-1.144 2-0.7421 7.3333-0.7422 7.3333 1.7987-6.6666 1.7986-6.6667zm-105.16 13.333v-0.6667h-1.3334v1.3333h1.3334zm-564-21.333v-0.66667h-1.3334v1.3333h1.3334zm636 0v-0.66667h-1.3334v1.3333h1.3334zm-631.86-5.9258 3.1952 0.0766 16-4.0934-14.667 1.3347-11.333 1.5774v4.0237l3.6095-2.9956zm593.85-19.572 2.2917-3.4975-2.9289 1.8102-1.3875 2.5924-1.3874 2.5924h1.1205zm-194.43-25.391-0.8889-0.88889v3.5556l1.7778-1.7778zm-500.53-9.4772 2.3634-4.9672-4.2555 5.3333-2.5651 4.6667 2.0938-0.0656zm3.6366-6.3005v-0.66667h-1.3333v1.3333h1.3333zm722-2 0.8241-1.3333h-1.3333l-0.8241 1.3333-0.824 1.3333h1.3333zm32.667-44.667v-0.66666h-1.3333v1.3333h1.3333zm-701.33-25.333v-0.66667h-1.3333v1.3333h1.3333zm800.67-3.3333 0.824-1.3333h-1.3333l-0.8241 1.3333-0.824 1.3333h1.3333zm-635.33-14v-0.66667h-1.3333v1.3333h1.3333zm-653.33-9.2546v-0.58798l-1.3333-0.82404-1.3333-0.82405v2.824h2.6667zm424.97-0.21758-0.80555-0.80555-3.5 1.4006 5.1111 0.21053zm7.7493-0.61648 0.87887-1.422-1.2204-1.2204-1.6866 2.0322-1.6866 2.0322h2.8358zm948.29 0.50593-2.3178-0.60677-6.031 1.1597 10.667 0.0538zm328.32-0.41722v-1.3333h-2.5093l-0.824 1.3333-0.824 1.3333h4.1573zm-562.67-52.667v-0.66667h-1.3333v1.3333h1.3333zm121.48-3.6667 2.9942-4.3333-7.1402 6.4648v2.2018h1.1517zm-124.15 2.3333v-0.66666h-1.3334v1.3333h1.3334zm129.33-9.3333v-0.66667h-1.3333v1.3333h1.3333zm-538.67-20v-0.66667h-1.3333v1.3333h1.3333zm5.3334-1.3333v-0.66667h-1.3334v1.3333h1.3334zm11.556-2.8889-0.8889-0.88889-0.8889 0.88889-0.8888 0.88889h3.5555zm-68.889-19.778v-0.66667h-1.3333v1.3333h1.3333zm356.67-0.66667-0.824-1.3333-3.176 0.0408 4 2.585 0.8241 0.0408zm-9.1111-3.5556-0.8889-0.88889-1.7778 1.7778h3.5556zm-4.8889-1.1111v-0.66667h-1.3333v1.3333h1.3333zm-4-1.3333v-0.66667h-1.3333v1.3333h1.3333zm350.67-85.333v-0.66667h-1.3333v1.3333h1.3333zm2-3.3333 0.824-1.3333h-1.3333l-0.824 1.3333-0.8241 1.3333h1.3333zm4.6667-6v-0.66666h-1.3334v1.3333h1.3334zm-59.028-18.806-0.8056-0.80556-3.5 1.4006 5.1111 0.21052zm-132.31-35.203-2.4207-2.6748-1.2852 1.2852 3.3732 4.0644h2.7534zm303.04-34.496 3.0279-3.4955 6.4632-12.287 7.1252-9.0468-19.644 20.064-6.3194 11.534 6.3194-3.2737zm40.048-15.531-0.7464-0.7464-1.8208 4.7817 1.6568-1.6444 1.6568-1.6444zm-1.7425-28.065 4-3.4697-5.3334 2.7717-8 6.9395 5.3334-2.7717zm12.269-3.8675-2.3932-1.75-5.876 1.7179 8.6666 0.83562v2.9422l0.9979-0.99791 0.9979-0.9979z" fill="#f5edcd"/>
<path d="m992.19 2318-5.8091-1.8122-6.7336-6.1972-4.923-10.667-0.0586-311.42 1.8014-4.3113 1.8014-4.3114 9.6577-8.4795 10.073-2.7973h24l10.607 2.9446 9.9629 9.9629 1.7808 11.137 1.1767 0.7272 1.1767 0.7273 15.118-13.475 21.511-10.55 17.333-4.7784 37.333 0.082 16 4.6258 8.6667 3.4962 8.6667 3.4963 10.879 7.1325 10.879 7.1326 16.909 18.389 14.32 22.941 7.579 21.995 2.2841 10 2.2842 10 0.032 42.667-5.602 24.152-6.6987 16.486-12.865 21.904-18.486 19.613-22.893 15.313-17.455 6.9878-20.386 4.2109-27.446-0.02-22.307-5.3476-11.513-5.9536-11.513-5.9537-6.6667-5.5204-6.6667-5.5205-0.6666 52.491-0.6667 52.491-2.3319 4.2644-2.332 4.2644-8.6694 6.4362-9.0646 3.035-24.269-0.178zm137.81-162.75 9.3334-3.7613 16.192-16.164 4.0657-8.6667 4.0658-8.6666 1.5048-7.0657 1.5048-7.0656v-16.838l-2.7072-14.364-4.568-9.6399-4.568-9.64-12.093-12.928-6.8324-3.7186-6.8323-3.7186-13.733-3.6566h-18.667l-6.7242 1.7908-6.7241 1.7907-5.2759 2.4655-5.2758 2.4654-8.3468 8.2847-8.3469 8.2847-4.6055 9.7766-4.6056 9.7767-1.4547 9.3018-1.4548 9.3018 0.9101 8.6982 0.91 8.6982 2.4774 8.0962 2.4775 8.0962 13.212 18.813 16.465 10.995 0.8481 0.059 0.848 0.059 13.333 3.8692 25.333-0.9669zm-943.33 70.069-12.667-1.0121-23.309-4.3971-27.357-9.4562-9.7957-5.2455-9.7957-5.2456-7.3696-4.8916-7.3696-4.8917-8.3674-8.3673-8.3674-8.3674-8.268-16.546v-10.504l4.3254-9.1152 12.651-11.374 17.509-8.8872 5.8695-0.6616 5.8695-0.6615 8.8027 4.552 21.93 20.657 7.892 4.7941 7.892 4.7942 10.002 3.2651 10.002 3.2652 24.942 3.2417 17.644-1.8 7.9048-2.0012 7.9048-2.0011 12.519-6.344 10.693-12.148 2.9777-11.825v-9.5714l-1.8083-4.328-1.8083-4.3279-13.38-11.925-14.952-5.954-70.599-18.664-30.118-11.013-21.026-12.368-19.185-18.706-9.7492-19.961-4.2192-16-1.5157-26.912 4.6647-21.088 3.1095-8.3001 3.1095-8.3 5.2407-7.7 5.2407-7.6999 14.665-13.837 20.232-13.208 23.341-8.4457 9.0422-1.9021 9.0422-1.902 15.337-1.4273 15.337-1.4272 15.049 1.4004 15.049 1.4005 22.499 5.6894 10.305 4.3459 10.305 4.346 17.861 9.9882 20.815 19.886 3.3927 6.8083 3.3927 6.8083-0.0586 9.4764-4.9125 10.816-5.8327 4.9926-5.8327 4.9925-18.388 9.1994h-14.484l-5.7226-3.0626-11.16-9.7567-11.16-9.7568-14.377-6.8014-10.333-2.1369-10.333-2.137-28.072 1.3366-13.39 4.5228-6.1314 4.4496-6.1314 4.4495-3.0536 6.3079-3.0536 6.3078 0.1432 15.195 2.0938 4.0488 2.0938 4.0489 8.4519 7.1118 5.1126 2.6082 5.1126 2.6083 32.752 10.526 44.189 12.067 29.173 10.063 10.652 5.9722 10.652 5.9723 10.074 10.158 10.074 10.158 9.8296 19.894 5.3552 20.938-0.0578 26.907-2.5767 11.653-2.5768 11.653-4.8568 9.6776-4.8568 9.6775-4.5033 6.1347-4.5033 6.1346-6.0323 5.5604-6.0323 5.5603-18.757 12.134-14.878 6.5798-22.103 6.4053-20.933 2.6457-21.333 1.1909zm565.33-1.8976-7.3333-1.6299-5.3333-1.7316-5.3333-1.7317-11.389-5.8267-11.389-5.8268-7.9443-6.3845-7.9443-6.3846-17.886-22.266-10.447-20.315-6.8759-21.333-3.2089-17.333 0.0651-18.667 0.0651-18.667 2.2496-10.586 2.2496-10.585 3.9128-10.722 3.9128-10.721 7.2407-12.134 7.2407-12.134 12.495-13.897 15.671-12.058 10.991-5.8222 10.991-5.8221 22.667-6.1259 38.667 0.082 25.344 8.439 6.6613 4.2019 6.6613 4.202 6.3496 5.9091 6.3496 5.9092 2.6342-1.628v-5.3084l1.9319-3.7359 1.9319-3.7358 9.3967-8.2504 10.073-2.7973 26.667 0.044 10.777 4.8953 7.1205 8.4623 2.7543 9.9172-0.0218 104.67-0.0218 104.67-4.8953 10.777-4.229 3.5585-4.229 3.5584-4.9608 1.0531-4.9608 1.053-28-0.2319-12.442-5.5186-2.0379-3.1247-2.0378-3.1248-1.2895-5.7705-1.2895-5.7704-0.69032-0.6904-0.69031-0.6903-16.849 14.022-24.007 11.451-10.277 2.0574-10.277 2.0573-13.723-0.1366-13.723-0.1367zm54.545-65.956 8.1163-2.5261 13.121-8.4196 10.58-13.862 5.3925-10.747 2.2945-7.8928 2.2945-7.8927-0.1502-24.134-5.4304-17.333-9.618-16-2.9061-3.1416-2.9061-3.1417-11.304-7.8246-11.044-3.8964-16.784-2.6813-19.535 2.7382-14.667 7.0743-16 16.283-7.2456 13.456-4.0878 15.694v23.159l5.2365 16.948 9.4595 16 5.9802 5.5452 5.9802 5.5453 6.2832 3.0416 6.2832 3.0417 6.7219 1.633 6.7219 1.6331 19.096 0.2268zm580.79 66.984-4-0.4756-10.476-1.4183-10.475-1.4184-27.049-7.9994-24.327-11.483-16.244-11.031-18.911-18.65-8.1697-17.458 0.8849-5.5338 0.8849-5.5339 5.5226-8.9357 13.692-10.314 6.8603-3.4365 6.8603-3.4364h13.788l2.9123 1.5229 2.9123 1.523 10.853 10.366 10.853 10.366 14.295 9.4123 20.167 6.709 19.833 3.0778 29.333-1.2742 18.305-6.1773 14.049-12.84 2.1562-4.5437 2.1561-4.5438v-18.473l-7.9082-11.939-5.7125-4.0626-5.7126-4.0627-22.667-8.3918-25.851-6.6202-30.149-7.9391-27.362-9.2746-19.305-9.8349-5.4059-3.7173-5.4058-3.7173-16.315-17.441-9.5127-19.457-2.1813-8.6667-2.1812-8.6667 0.6869-18.667 0.687-18.667 3.468-10.667 3.4681-10.667 7.9395-13.755 15.205-16.423 23.5-15.482 28.714-9.4432 25.137-4.2296h31.181l23.683 4.0898 20 5.4202 29.333 14.272 17.955 14.906 10.654 13.478 1.4709 5.4626 1.4709 5.4627-0.8871 4.7877-0.8872 4.7877-2.6685 4.3414-2.6684 4.3414-14.788 10.589-14.985 5.6574-12.737 0.044-10.646-7.0455-13.95-12.633-4.6667-2.8761-4.6666-2.8762-7.0252-2.7623-7.0251-2.7624-25.324-2.9866-21.211 3.1014-5.967 2.0332-5.9671 2.0332-11.811 10.396-2.3172 4.8832-2.3173 4.8833 0.096 16.714 2.0558 3.9754 2.0558 3.9755 11.718 10.314 27.705 9.8385 25.333 7.0237 42.667 12.093 21.495 8.6231 9.2526 5.4282 9.2525 5.4282 11.368 9.7938 12.09 16.942 6.766 16.651 1.8882 9.8686 1.8881 9.8685v16.906l-1.4308 10.287-1.4308 10.287-6.754 18.952-7.9122 13.998-13.806 15.136-11.548 7.5925-11.548 7.5924-20.551 8.5556-10.177 2.5115-10.177 2.5114-12.947 1.3848-12.948 1.3847-23.438-0.3996zm809.45-0.5057-7.887-1.2449-20.226-5.4337-29.333-14.677-17.264-14-14.736-17.63-4.4728-7.445-4.4728-7.4451-3.2511-8.0488-3.2511-8.0489-2.7043-10.323-2.7044-10.323-1.5408-32.882 1.6905-11.559 1.6904-11.559 3.3315-10.667 3.3315-10.667 8.0517-16 5.1358-7.5714 5.1358-7.5713 18.03-17.867 7.3333-4.9771 7.3334-4.9771 6.9155-3.4976 6.9156-3.4976 18.026-6.785 22.809-4.0714 16.667 0.036 16.667 0.035 24 5.3489 14.269 5.4872 13.731 6.9342 10.906 7.4756 6.356 6.4161 6.3559 6.4162 3.7903 5.4758 3.7902 5.4758 1.5351 6.0965 1.5351 6.0966-1.5652 4.7428-1.5653 4.7428-13.805 12.151-20.976 10.552h-11.974l-10.4-10.683-10.4-10.683-14.856-6.8011-17.385-2.7067-9.4212 1.4618-9.4213 1.4617-9.1865 4.6263-9.1865 4.6262-4.9667 4.3488-4.9668 4.3488-5.1169 7.9039-5.117 7.9038-2.7546 8.7628-2.7547 8.7629-0.064 12.667-0.064 12.667 3.5478 10.488 3.5479 10.488 7.5947 11.039 11.173 11.513 17.573 7.8844 19.786 2.9428 19.121-3.0793 8.3252-4.0511 8.3251-4.051 6.3415-7.3756 6.3416-7.3756 3.6004-1.8782 3.6005-1.8782h8.1854l7.8132 3.1747 7.8132 3.1748 15.963 10.84 7.0247 8.3484v12.619l-4.7528 7.9216-4.7529 7.9216-8.4943 9.0255-10.487 7.7601-10.487 7.76-9.945 4.1402-9.945 4.1401-23.136 5.1282-33.333 1.2433zm-527.45-0.912-4.6667-0.5327-16.667-3.8027-15.894-8.0232-14.106-12.397-4.1495-6.1425-4.1496-6.1424-2.968-8-2.9679-8-1.8825-9.784-1.8825-9.7839v-118.11l-3.3333-2.7388-27.146-0.9211-3.6781-2.749-3.6782-2.7491-5.4981-7.362v-31.14l5.8158-9.3333 4.4255-2.6667 4.4254-2.6666 28-1.3334 0.6666-24.065 0.6667-24.065 4.6118-7.026 4.4265-3.3763 4.4265-3.3762 12.601-3.3759 12.601-3.3758h14.086l4.5202 1.8886 4.5201 1.8886 4.8741 7.4279 0.6667 28.731 0.6666 28.731 46.667 1.3334 8.7069 6.2102 4.6264 8.4564v30.667l-3.0256 4.8655-3.0256 4.8654-5.3347 2.1346-5.3347 2.1345h-39.728l-4.2181 1.6186v105.9l4.0604 13.673 9.7318 8.0218 6.7705 1.4546 6.7706 1.4547 10-0.8037 10-0.8036 9.2329 4.8205 3.0716 6.0249 3.0715 6.0248 0.8223 8.805 0.8222 8.8049-0.9409 6.2741-0.9408 6.274-9.3055 10.3-12.5 4.15-20 2.5932-14.667-0.3444zm316-1.6223-11.333-2.3942-9.3334-4.4902-9.3333-4.4903-16.184-16.043-7.1106-14.667-5.885-21.333-0.5047-63.313-0.5047-63.313-1.5724-1-1.5723-1-25.019-0.04-4.3488-2.6877-4.3487-2.6877-4.9506-9.9579v-28l4.9954-10.053 8.3379-5.9474 28.561-0.8998 0.8681-2.7353 0.8682-2.7353-0.842-26.963 0.2724-8.3631 0.2723-8.3631 11.011-11.945 10.828-3.4161 10.828-3.416 10.735-0.753 10.735-0.7529 4.2527 2.1991 4.2527 2.1992 4.6918 7.1544 0.6666 28.728 0.6667 28.728 47.148 1.3334 7.5186 5.4894 6.1492 11.844-0.4081 12.667-0.4081 12.667-5.333 10.495-7.5172 5.5054-47.15 1.3334-0.7892 108 3.0236 10.425 5.5071 7.4487 5.1562 2.0631 5.1563 2.0632 29.946 0.04 3.2669 1.6532 3.2669 1.6533 7.2237 13.828 0.9337 9.9636 0.9336 9.9636-4.3628 13.135-7.262 6.9558-4.6812 1.9555-4.6813 1.9554-20.83 2.8973-20.474-0.188zm-1587.8-1.4316-5.8165-1.232-9.3239-7.1116-2.4922-5.4881-2.4923-5.4882-0.0293-106.38-0.0293-106.38 1.8014-4.3113 1.8014-4.3114 9.6577-8.4795 10.073-2.7973h25.333l10.05 2.7911 4.4806 4.4805 4.4806 4.4806 1.6273 6.7831 1.6272 6.7832h1.3067l14.821-13.21 17.606-9.2116 20-6.245 37.333 0.2091 25.333 8.3928 17.017 10.065 7.9421 8.6539 7.9421 8.654 10.504 21.701 6.4408 25.39 3.0875 32.934-0.46641 60-0.4664 60-6.2561 12.704-12.224 7.164-11.426 0.5375-11.426 0.5374-15.724-2.925-8.9451-6.8228-4.6639-8.5288-1.3333-136-3.5537-9.726-3.5537-9.7261-6.983-9.1551-11.909-6.9791-7.667-2.0161-7.667-2.0162-8 0.6639-8 0.6638-7.7291 2.9313-7.7291 2.9312-7.0145 6.8809-7.0145 6.8808-3.9133 9.3334-3.9133 9.3333-0.6764 66.706-0.67639 66.706-6.7712 13.15-6.163 3.1716-6.163 3.1715-26.236 0.9798zm1993.1 0.026-11.333-0.7917-5.7124-3.1609-6.8518-8.1429-1.3771-4.9586-1.3772-4.9586-0.01-154.15-0.01-154.15 2.692-14.364 2.3962-3.2419 2.3963-3.2418 5.2577-2.7332 5.2578-2.7331 26.681-0.995 5.7349 1.5442 5.7348 1.5443 10.207 9.2213 1.4876 5.908 1.4877 5.908v108.15h3.4588l10.521-10.775 16.02-10.39 10.667-3.5937 10.667-3.5936 15.411-0.663 15.411-0.6629 22.511 4.4897 24.528 11.847 18.139 18.102 4.503 7.631 4.5029 7.6311 3.2423 8.9326 3.2424 8.9326 4.24 17.446 1.1124 151.09-5.485 10.752-9.8124 7.4878-34.879 0.825-5.9639-3.0791-5.964-3.0792-6.7388-13.256-0.6844-68.706-0.6845-68.706-7.7113-18.325-8.9906-8.9906-9.9292-4.9893-14.257-3.3565-10.205 0.657-10.205 0.6569-12.775 5.6324-14.227 13.455-7.0078 15.616-2.6566 14.008-0.029 61.485-0.029 61.485-2.4922 5.4882-2.4923 5.4881-4.6878 3.5756-4.6879 3.5756-10.248 1.3366-6.6666 0.6736zm-599.33-2.5328-5.3333-2.4615-3.0319-3.2957-3.0318-3.2957-1.3015-4.5381-1.3015-4.538v-209.84l1.4181-3.7535 1.4182-3.7534 3.5818-3.7888 3.5819-3.7888 10.307-5.3001 32.6 0.8777 5.7589 3.995 5.7588 3.9951 4.8504 10.676v212l-7.271 13.162-11.753 6.1712-30.914-0.058zm12.309-276.14-6.358-1.1244-11.834-5.7285-4.2511-4.8417-4.251-4.8417-2.7876-6.0677-2.7876-6.0678 7e-4 -10.667 8e-4 -10.667 3.9068-7.7576 3.9069-7.7576 9.3427-8.2031 12.136-5.4538 22.667 0.124 5.2305 2.2188 5.2306 2.2189 10.949 8.9722 3.9221 7.1523 3.922 7.1523 0.026 10.667 0.026 10.667-1.763 5.019-1.7631 5.0191-10.296 13.025-7.0758 3.3899-7.0759 3.3899-14.667 1.2867zm-508.98-192.86-6-0.5461-44-5.4028-38.667-7.7588-40-11.002-32.356-11.722-17.822-7.4916-17.822-7.4917-36.034-18.259-26.633-16.803-529.33-1.3451-8-2.3674-8-2.3675-24-11.858-6.6667-5.5064-6.6667-5.5065-13.985-16.383-10.441-21.333-6.2414-20v-941.33l4.6366-17.333 13.636-27.303 17.485-18.886 15.876-10.781 16.52-7.4906 17.179-4.6126 36-1.5932 0.7936-23.333 0.79359-23.333 5.736-14.794 8.0996-11.014 12.419-8.2263 10.824-2.9358 170.67-0.36334 14.34 5.873 10.245 7.0998 8.0048 12.474 2.2475 5.9431 2.2475 5.9431 0.13131 23.333 0.13131 23.333 125.32 0.70514 14.034-2.9012 19.3-9.6096 15.305-15.567 13.187-27.294 27.92-74.667 10.608-27.272 6.1802-9.9158 6.1803-9.9158 19.17-19.17 14.783-10.017 11.14-5.6644 23.526-7.3776h458.67l17.333 4.8127 26.667 13.052 15.285 13.243 14.766 16.892 11.542 22.667 2.8252 7.3333 2.8253 7.3333 33.653 89.333 8.0852 15.227 14.209 15.701 18.389 9.6633 15.648 4.0757h128.62l0.8622 1.395 0.8621 1.395-30.028 41.877-2.8726 2.05-110.67-0.90718-16-4.6992-22.662-10.581-19.192-14.7-15.48-16.661-5.0222-8.5843-5.0221-8.5843-9.1758-24-7.9588-21.333-7.9587-21.333-8.6001-22.72-8.6-22.72-7.3404-14.486-8.2063-8.2062-8.2062-8.2062-16.558-8.3583-15.245-3.9709h-432.21l-15.694 4.0878-13.426 7.2456-16.358 15.25-8.0643 15.417-7.3696 20-30.45 80-5.2876 13.236-4.7755 8.5395-4.7756 8.5395-18.426 19.398-19.267 13.276-13.333 6.7011-22.667 7.6442-417.33 1.3333-11.913 4.7528-11.112 6.5121-12.716 14.068-6.2747 13.607-1.3538 10.53-1.3538 10.53 0.19082 85.333 0.19083 85.333 2.6681 3.3333h433.61l17.253-19.333 33.573-33.333 27.903-24.107 22.667-17.32 25.333-17.622 30.31-17.708 32.357-17.089 40-17.166 38.667-13.328 42.667-10.879 30.667-5.4174 41.333-5.5527 77.333-1.4409 45.333 4.4762 45.333 7.6457 36 9.3619 42.667 14.549 17.333 6.7327 28 12.322 28 14.901 28 16.093 29.333 19.972 26.576 20.245 16.007 14.987-7.4657 11.281-22.605 30.398h-2.7883l-10.195-8.4462-10.195-8.4462-25.041-19.429-26.156-16.973-35.359-20.318-22.778-10.602-37.333-15.443-34.667-10.83-32.736-8.1504-31.264-5.2936-40-4.6019-68-0.0362-30.667 3.3556-41.333 6.7404-41.333 10.714-29.042 9.3481-37.279 15.88-24.345 12.182-37.333 22.05-32.092 22.907-27.908 23.185-45.333 45.544-24.806 31.996-30.353 45.333-14.694 28-10.191 22.667-10.191 22.667-13.216 38.667-10.724 41.333-3.8229 22.667-3.8228 22.667-1.6143 22-1.6142 22 0.82674 29.333 0.82674 29.333 3.8564 29.333 2.187 12.667 2.187 12.667 4.0511 16.667 4.0511 16.667 9.1732 30.334 16.868 42.999 21.415 42.667 21.32 35.155 22.453 30.178 27.698 33.333 28.164 28 16.532 13.827 16.532 13.827 25.258 18.737 17.492 10.608 17.492 10.608 18 9.0289 18 9.029 15.333 6.6599 15.333 6.66 35.704 12.409 36.296 9.0937 34.667 6.6625 37.333 4.8018 77.333-0.028 38.667-4.7892 33.333-6.5978 26.543-6.7187 25.457-8.0536 40-15.721 40.23-19.708 34.032-20.509 26.221-18.764 35.517-29.568 32.022-32.226 30.02-35.934 21.357-29.696 17.409-28.971 23.283-46.667 11.526-29.333 10.272-30.667 7.905-32 2.7512-14 2.7513-14 1.9457-13.333 1.9457-13.333 1.5929-20 1.593-20-0.7718-30.667-0.7718-30.667-4.1364-32.162-3.2747-16.079-3.2748-16.079-2.817-11.173-2.8171-11.173-9.4386-32-14.227-36.058-17.558-37.04-13.824-24.235-6.848-10.667-6.8479-10.667-3.1626-5.9416 16.803-19.392 27.819-33.333 17.208-19.316 193.34-0.68397 10.209-36 3.2471-16 3.2472-16 1.6026-15.033 1.6027-15.033-0.6987-24.3-0.6987-24.3-5.6766-28.451-5.2036-17.775-5.2035-17.775-4.6538-11.019-4.6539-11.019-3.6711-6.2642-3.671-6.2642-15.797 17.234-36.425 41.196-28.074 30.804-26.488 30.667-25.438 28.129-54.667 62.297-28 32.443-35.03 39.798-20.97 24.368-46.667 52.623-19.743 23.008-52.257 58.512-37.545 42.821-21.159 24-7.8129 9.3334-7.813 9.3333-41.669 46.538-8 8.7646-8 8.7645-12 10.887-6.0396 3.1602-0.8488-2.212-0.8489-2.2121 3.5378-7.2134 3.5378-7.2133 12.794-19.264 23.73-34.667 44.009-62.667 15.494-21.333 15.494-21.333 23.227-32 13.688-19.333 13.688-19.333 20.462-28 29.853-41.333 21.368-29.333 41.376-57.333 50.208-69.333 65.172-89.333 9.6268-14 9.6269-14 20.633-28 21.44-29.224 21.44-29.224v-4.3204l-5.7982-4.8466-5.7981-4.8466-21.98-14.967-24.424-12.271-16.938-6.3795-25.635-6.6605-31.824-2.6001-24.27 2.9369-25.333 6.5389-21.333 9.4971-5.7509 2.0359-5.751 2.0359-10.626-3.1835-5.1958-8.5214v-4.8977l-0.01-4.8977 7.2916-8.6656 21.375-9.8576 19.598-7.0529 32.48-6.5766 26.588-1.7176 29.333 3.107 27.046 6.438 24.954 9.8171 22.667 11.358 25.333 16.653 7.5654 5.8131 7.5653 5.8131h1.8021l24.4-23.023 18.311-12.902 7.511-2.8819 7.5111-2.8819 16-0.24545 7.476 3.4726 7.4759 3.4726 6.9656 9.1324 2.2066 5.2616 2.2065 5.2616-0.146 21.534-2.8569 8.5665-2.857 8.5665-10.669 19.904-20.469 30.33-1.0848 1.5497-1.0847 1.5497 13.374 24 15.019 37.062 11.589 45.605 2.0918 18 2.0917 18-0.013 15.333-0.013 15.333-1.9794 18.667-1.9795 18.667-5.3584 29.333-3.8224 15.774-3.8225 15.774 2.9908 1.145 137.33-0.69353v-190.81l-9.9899-20.211-17.165-16.057-15.512-6.1648-73.048-1.427-1.0411-2-1.0412-2-16.203-34.313v-4.6936l1.9141-1.5886 1.9141-1.5886 94.172 0.88672 26.086 8.9959 23.85 15.712 16.264 19.256 8.9534 16 5.5758 14.988 3.9376 20.58v926.09l-3.2978 13-3.2977 13-5.2753 10.838-5.2754 10.838-14.187 16.515-6.6666 5.2208-6.6667 5.2207-10 5.4083-10 5.4082-18.667 6.227-512 1.3334-32 19.493-43.084 21.025-43.583 17.185-13.28 4.2332-13.28 4.2331-20.72 5.1845-20.72 5.1844-30.667 5.4162-34.667 4.3179-84 0.7507zm-328-135.59v-0.4415l-53.288-53.792-443.38 0.6745 0.41114 6.6666 0.41114 6.6667 8.215 17.948 15.04 14.346 9.2558 4.8214 10.667 3.3734 452.67 0.178zm1186-4.1398 8-3.9146 14.814-14.838 5.9196-12.313 3.0568-14.574-1.7064-4.4468h-424.89l-53.856 53.667v1.031l440.67-0.6977zm-11.249-372.17 3.7864-3.6276 0.7961-3.6243 0.796-3.6242-4.4498-11.121-4.792-2.5646-27.554-9.6934-30.471-14.369-26.862-17.816-12.027-12.073-12.027-12.073-8.1363-12-8.1362-12-5.5017-10.967-5.5016-10.967-3.398-10.122-3.3979-10.122-5.374-25.734-0.085-20.71-0.085-20.71 3.0838-24 5.2558-24.63 7.8134-28.703 8.9231-25.333 8.9232-25.333 14.333-46.619 1.6348-8.7144h-31.867l-8.7332 30-8.7316 21.333-18.862 56-4.0208 16.508-4.0207 16.508-3.0072 18.825-3.0073 18.825 0.116 52 2.8098 12.667 2.8098 12.667 8.3834 25.333 15.552 32 16.725 23.441 16.186 15.613 16.186 15.613 23.259 16.476 28.594 14.558 26.093 9.7114 13.907 3.8783 10.298-1.0762zm-201.38-647.28 6.6602-4.2739 27.965-29.391v-3.6191l-9.3333-12.227v-5.8691l4.3908-6.5934 12.176-12.667h3.9993l11.186 10.978 2.6937-1.6649 11.908-20.646 3.4902-8.2932 3.4901-8.2932v-6.5565l-4.1904-4.1905h-6.5825l-5.6135 2.8431-5.6136 2.8431-30.754 30.98-11.448 16-11.448 16-12.005 18.667-3.4778 6.9006-3.4779 6.9006-1.4017 6.255-1.4018 6.255 1.6936 5.336 10.435-1.3996zm-642.71 1060.5-4.6667-0.4472-12.667-1.4157-12.667-1.4158-45.963-9.246-40.514-12.087-30.856-12.155-41.333-20.872-18.862-11.892-18.862-11.893-13.063-9.851-13.063-9.8511-13.408-12.132-13.408-12.132-37.458-38.522-24.056-33.213-18.77-29.333-6.3133-11.169-6.3133-11.169-5.9734-12.831-5.9734-12.831-10.565-24.739-5.9741-18.297-5.9741-18.297-3.9484-16-3.9484-16-5.4558-31.927-1.9719-20.584-1.9719-20.584v-41.81l3.9502-41.095 5.4433-30.667 2.7344-11.333 2.7344-11.333 9.0851-30.73 12.183-33.127 15.642-34.28 28.894-48.135 24.492-32.653 31.601-34.45 11.521-10.852 11.521-10.852 31.531-24.524 33.333-22.079 30.696-17.665 42.81-18.397 33.562-10.73 32.932-8.0299 28-5.4092 21.99-2.88 40.115-1.9957 53.895 1.9461 36.502 5.3578 42.164 9.7876 36.217 11.655 32.348 13.297 23.732 11.919 26.369 15.146 26.667 17.353 11.333 8.8143 11.333 8.8143 20.562 18.086-0.8815 2.2971-0.8814 2.2971-23.68 32.018-3.4953 1.9698-19.08-15.981-23.931-18.495-29.946-19.853-27.177-14.837-33.626-14.88-39.197-13.022-28-6.7785-32-5.4139-29.333-2.7069-49.333 0.0234-36 4.0109-45.41 9.2495-30.59 9.6772-26.667 10.534-26.667 12.32-29.333 17.24-26.667 18.649-27.954 22.954-13.17 12.641-13.17 12.641-20.528 24.057-2.9223 4.2058-2.9222 4.2058v2.754l10-1.495 238.63-39.671h3.288l9.2427 14.449 26.481 47.551 5.9464 11.726-1.6024 8.012-13.326 33.143-13.326 33.142v3.0356l48.963 47.495 1.6892 4.0782 1.6893 4.0783-0.7673 4.7283-0.7673 4.7282-19.752 36.5-14.24 27.194 43.187 44.078 5.321 8.7272 0.01 3.2631v3.2632l-10.79 31.836-10.79 31.836 1.2917 1.2917 12.793-20.824 27.539-44.333-0.9557-2.5-0.9558-2.4999-29.856-45.333-2.9863-6.1592-2.9862-6.1591 0.8763-4.6713 0.8764-4.6713 21.583-25.006 26.36-31.564v-2.4891l-7.083-11.28-26.756-41.229-1.728-5.0157-1.7281-5.0157 1.3666-3.5943 1.3665-3.5943 15.662-22.109 15.662-22.109 12.571-19.025v-4.5128l-11.874-48.462-1.5981-8.0184-1.5982-8.0184 5.6008-12.661 2.124-0.81508 2.1241-0.81507 149.89 25.832 66.492 11.306 1.0432 3.1295-16.701 23.394-3.1517 4.3333-3.1518 4.3333h-5.2732l-71.258-11.887-46.667-8.1601-42.128-6.9362-1.5962 1.5962 3.8488 15.543 3.8487 15.543 1.3466 1.7246 1.3467 1.7246 50.667 8.2263 77.333 13.694 3.462 3.1558-22.936 34.555-22.936 34.555-41.232 64-22.87 40-6.0905 14.667-0.032 6.3865-0.032 6.3864 2.7511 5.3925 2.751 5.3925 12.19 5.3922 10.553-1.6874 9.7553-5.0658 21.333-17.279 37.581-36.918 65.383-69.333 19.654-21.662 19.654-21.662 1.2618 0.7799 1.2619 0.7798-1.6976 12.43-3.8329 23.333-3.8328 23.333-12.038 76-12.039 76-6.6162 40.667-6.6162 40.667-1.7534 13.659-1.0379 1.6793-1.0378 1.6793-106.29-17.765-46.667-8.1416-79.898-12.99-0.6309 0.6309-0.6308 0.6309 4.2208 12.618 7.6411 21.333 7.641 21.333 1.0788 1.1836 1.0787 1.1835 24.833-5.7189 8.3071 0.02 7.0795 5.5688 1.9734 3.816 1.9733 3.8161v4.3961l-2.1834 4.6013-2.1835 4.6014-10.034 5.119-28.932 5.5275-7.6273 1.8871-5.0695 12.667-5.0695 12.667 0.925 0.9753 0.9251 0.9752 82.583 13.501 155.04 26.548h6.8391l0.7394-4.3333 0.7393-4.3333 7.3341-47.333 7.3341-47.333 7.9122-48 3.3953-22.667 3.3952-22.667 3.3277-20.667 3.3276-20.667 2.6039-16.667 2.6038-16.667 8.0575-50.667 8.0575-50.667 8.7155-53.208 8.7156-53.208 3.5132-8.2511 16.335-18.667 16.335-18.667 10.616-11.465 1.5314 0.48025 1.5314 0.48026 16.897 29.172 20.87 42.667 4.6786 12.667 4.6785 12.667 6.6598 21.559 6.6597 21.559 3.4089 16.544 3.409 16.544 3.881 26.459 1.6171 17.968 1.6172 17.968-0.8145 28.032-0.8146 28.032-1.9378 14.667-1.9379 14.667-2.1988 12.667-2.1987 12.667-10.297 40-9.2274 28-6.2674 14.667-6.2675 14.667-10.582 20.788-10.582 20.788-24.584 37.112-7.6776 10.181-7.6776 10.181-21.978 25.073-39.708 38.156-26.165 20.845-30.128 19.939-29.251 16.735-30.152 14.332-29.93 11.559-26.667 8.1578-26.993 6.7811-19.17 3.335-19.17 3.3349-30.667 2.6804-31.333-0.202-31.333-0.2034zm98.667-50.405 14-2.2079 25.333-5.2054 26.667-8.1149 30.667-10.694 50.667-24.98 31.086-20.852 16.549-12.898-2.3018-2.099-62.667-10.954-126.67-21.364-62.273-10.409-117.73 19.588-102.67 17.457-33.333 5.6345-1.306 1.2281-1.3059 1.2281 3.9726 3.3382 3.9726 3.3383 41.509 27.804 39.824 19.876 36 13.342 28.706 8.3129 28.627 6.384 28 4.1516 10.667 1.0863 80-0.7832zm-272-134.64 43.333-7.2488 128-21.772 11.394-1.4118 1.4952-2.4192 2.5974-10.875 2.5975-10.875-0.5855-1.5257-0.5855-1.5258-39.035-1.7737-4.3821-1.8309-4.382-1.831-2.8906-3.6747-2.8905-3.6747v-11.281l2.8905-3.6747 2.8906-3.6747 8.5987-3.5928 22.287 2.5624 20.667 0.02v-2.2832l-8.9016-11.717-25.427-38.967-2.5516-1.577-26.453 4.0936-54.667 9.1861-94.667 16.117-12.622 1.4823-0.5575-1.8342-0.5576-1.8341-6.8828-45.333-8.0553-50.667-8.0554-50.667-9.3469-58.667-9.3468-58.667-3.8796-24-3.8795-24-1.6184-11.723-1.6183-11.723 2.42-2.2804 25.333-4.035 192-32.464 8.6667-1.4562v-2.6779l-16.443-28.973h-5.6241l-38.599 6.7816-110.67 18.653-45.333 7.752-44 6.8153-7.3333 1.5436v6.47l4.5656 26.326 4.5657 26.326 4.702 29.333 4.7019 29.333 6.0166 37.333 6.0165 37.333 20.051 125.33 1.3111 8.6666 1.3112 8.6667 10.934 68 5.2214 32 5.2215 32 1.4062 9.3333 1.4062 9.3334 1.416 4.6666h4.487zm-89.854 2.2542-0.6999-2.3333-3.4058-23.333-3.4057-23.333-9.296-54.667-7.3012-45.333-7.3011-45.333-8.7089-55.333-8.7089-55.333-6.6214-40-17.302-105.05-1.3732-1.3732-10.692 23.144-10.439 31.278-4.7262 19.333-4.7262 19.333-5.2164 30.667-1.6288 20.667-1.6288 20.667 0.89384 21.05 0.89385 21.05 4.0625 31.232 3.4016 16.667 3.4016 16.667 9.0347 31.5 11.086 28.5 10.408 23.787 8.1078 14.773 8.1078 14.773 24.746 37.333 26.924 31.333h2.8132zm620.82-16.674 12.53-14.992 9.517-13.333 18.085-29.333 13.086-24 6.0611-13.876 6.0612-13.876 5.1807-14.523 5.1808-14.523 5.2482-20.934 5.2481-20.934 5.3472-32.102 3.1824-41.231-0.8214-20.667-0.8214-20.667-1.4024-11.333-1.4023-11.333-3.3734-18-3.3735-18-3.2417-12.872-3.2416-12.872-8.9662-26.257-11.442-27.477-1.8426 2.1436-7.0662 42.667-12.02 76-12.02 76-6.6198 40-10.607 69.333-5.4834 36-4.7332 28.667-4.7331 28.667-3.2423 23.214-3.2422 23.214v3.7293l1.2187-0.7533 1.2188-0.7532zm-339.34-134-1.5094-5.655h-2.1158v6.0733l4.272 6.0992 0.8626-0.8626zm-130.48-767.41-8.8583-3.0194-10.935-7.5781-10.894-11.819-9.7872-20.495-0.4246-30.46-0.4247-30.46 2.7437-9.0331 2.7438-9.0331 10.83-16.219 12.91-9.4768 14.371-6.5792 18.584-2.6857 242.67-0.0326 17.333 2.798 18.901 9.0739 11.008 10.683 7.2305 11.425 2.6016 8 2.6015 8 1.3132 53.358-1.5378 7.4076-1.5378 7.4076-7.89 16.683-15.902 15.902-14.316 6.5543-14.169 2.6871-260.3-0.06872zm274.86-38.986 4.6659-2.741 5.9576-10.518-0.02-44-1.2319-5.3333-1.2319-5.3333-10.432-9.7477-17.04-1.7323-242.67 0.81341-8.4092 4.602-6.2574 10.065v52l2.6971 4.6667 2.6972 4.6667 11.939 6.051 254.67-0.71765z" fill="#68928e"/>
<path d="m1388.7 2223.9-13.333-1.077-17.333-3.1553-26.85-8.7132-23.816-11.964-16.41-12.339-14.994-16.195-3.2979-6.508-3.2978-6.5081v-11.019l2.1758-4.5853 2.1759-4.5853 6.6359-5.805 6.636-5.8049 14.204-7.1865 10.528-1.4121 4.972 1.6409 4.9719 1.6409 9.7004 9.921 17.333 15.403 7.8961 3.9866 7.896 3.9867 25.541 6.6064 33.333 0.2327 15.92-4.6874 5.0031-2.5524 5.003-2.5523 9.5646-8.3979 2.8406-5.4595 2.8405-5.4596 0.088-19.209-7.9259-11.204-9.5645-7.7011-19.769-8.0486-30.667-8.0534-25.333-6.5358-25.333-8.2384-18.086-7.8108-15.493-9.0805-13.653-12.275-5.8958-8.9217-5.8957-8.9217-7.4242-20-0.136-40 2.9586-10.347 2.9585-10.347 2.9211-6.2144 2.9212-6.2144 6.0905-7.589 6.0906-7.589 15.594-13.307 7.2518-4.3951 7.2519-4.395 12.94-4.3936 12.94-4.3935 11.333-2.3242 11.333-2.3241 40-0.166 18.667 3.5517 23.638 6.7354 15.028 6.8678 15.559 9.105 18.876 17.74 7.5651 11.855v12.897l-1.8265 4.3714-1.8265 4.3715-11.68 9.9987-8.4325 4.1516-8.4325 4.1515-7.016 0.5819-7.0161 0.5818-4.1241-2.1326-4.124-2.1327-7.7607-6.8577-7.7607-6.8578-6.8179-4.4144-6.8179-4.4145-17.031-5.8663-36-0.2574-7.4986 2.3081-7.4986 2.308-6.4987 4.345-6.4987 4.3449-7.4509 13.333 0.5446 8.9985 0.5446 8.9986 3.5229 5.3234 3.5228 5.3234 5.1341 3.3975 5.134 3.3975 26.376 9.4563 50.667 14.149 23.397 7.1371 10.008 4.5606 10.008 4.5607 15.254 9.6348 5.7933 5.5315 5.7932 5.5315 5.3653 7.8269 5.3653 7.827 3.2241 7.9345 3.224 7.9345 2.0411 13.572 2.041 13.572-1.5213 13.333-1.5214 13.333-3.3127 10-3.3126 10-10.251 17.333-6.4642 6.7268-6.4642 6.7267-8.5082 5.7751-8.5083 5.775-22.435 10.513-25.165 6.3835-24.718 1.5239-12 0.8677zm814-0.094-11.333-0.9517-10.472-2.7321-10.472-2.7322-12.358-5.8539-12.358-5.854-15.894-10.793-8.3122-8.3899-8.3122-8.39-5.7552-8.7118-5.7551-8.7119-4.0969-8.1787-4.0968-8.1787-2.7633-10.488-2.7632-10.488-3.082-26.006 1.564-14.997 1.5641-14.997 2.0452-7.8489 2.0452-7.8488 7.0418-17.636 10.897-18.619 12.764-12.69 12.764-12.69 14.999-8.908 24.806-10.698 26.095-5.0612h30.398l19.508 4.0555 17.333 5.6141 11.333 5.8018 11.333 5.8019 7.0171 6.1483 7.017 6.1484 6.246 8.7529 6.246 8.753 0.5715 7.9001 0.5714 7.9001-15.669 15.16-19.575 10.236-12.789 0.3941-23.826-22.964-15.806-5.9138-8.6683-0.7088-8.6683-0.7089-16 2.9452-19.205 9.4323-12.079 12.079-10.727 21.839-2.8518 21.058 1.7082 13.608 2.0284 7.2764 2.0283 7.2764 3.0998 6.1171 3.0997 6.1171 6.0688 6.7498 6.0687 6.7499 18.094 9.421 14.131 2.959h14.171l13.925-2.6409 6.8859-3.428 6.886-3.428 17.333-16.87 5.8247-2.9662h5.4086l7.3264 2.7411 7.3264 2.7412 19.945 13.02 2.1454 3.2744 2.1455 3.2744 1.5202 9.368-6.8954 15.062-8.3733 8.7897-8.3734 8.7897-9.5474 6.2804-9.5474 6.2803-8.686 3.4773-8.6861 3.4772-13.1 2.5912-13.1 2.5911-20 0.9812zm-206.92-1.1896-8.9198-1.0285-7.7469-2.2375-7.7469-2.2376-17.893-9.3684-13.527-13.527-3.9952-8.3714-3.9953-8.3714-2.8603-10.394-2.8602-10.395-0.5465-63.003-0.5464-63.003-5.7755-1.2319-23.14-0.7626-7.5269-5.5054-4.9914-10.048-1.3246-16.502 1.6025-7.7194 1.6026-7.7193 7.997-9.1081 4.8903-1.3583 4.8903-1.3582 21.715-0.02 0.8093-2.1091 0.8093-2.109v-41.782l2.3312-4.6327 2.3313-4.6327 10.667-7.4153 18.667-5.3904 20-1.5405 4.6473 3.1791 4.6472 3.1792 1.6664 3.2933 1.6665 3.2933 0.1893 13.333 0.1893 13.333 0.8303 14.667 0.8304 14.667 45.333 1.3747 4.3203 2.3401 4.3202 2.3402 5.8918 11.278 0.134 24-3.3333 6.5973-3.3334 6.5974-3.7594 2.736-3.7594 2.7359-44.434 0.8542-1.6539 1.3726-1.6538 1.3726-0.04 50.453-0.04 50.453 1.4365 6.6982 1.4365 6.6983 2.9 4.266 2.9 4.2661 10.537 5.4389 32.129 1.054 3.1086 1.9714 3.1085 1.9714 3.2118 6.8981 3.2117 6.8982-0.02 24-3.0052 5.3062-3.0053 5.3061-5.2718 2.9572-5.2718 2.9571-8.701 1.3229-8.701 1.3228-9.3333 0.5604-9.3334 0.5603zm-337.6-2.0399-9.1908-2.0499-18.702-9.4182-13.997-13.238-4.8303-9.192-4.8303-9.1921-2.8714-10.401-2.8714-10.401-0.5308-61.991-0.5308-61.991-1.3904-1.6753-1.3903-1.6753h-23.108l-11.898-6-5.3333-10.667 0.11-26.667 1.7781-3.3334 1.7781-3.3333 5.6667-6.2829 6.6667-2.8484 26.667-1.5354 0.7442-23.333 0.7443-23.333 2.3293-4.4094 2.3293-4.4093 11.63-7.3756 27.054-6.134 12.14 1.3684 7.0287 5.1494 2.3312 4.5719 2.3313 4.5719v52.509l2.6982 1.6676 18.984 0.5071 18.984 0.5072 7.6471 0.142 5.0161 5.0161 5.016 5.0161 1.6584 7.9839 1.6583 7.9839-0.7613 9.0903-0.7612 9.0903-4.9011 8.3917-4.6195 2.7139-4.6194 2.7138-40 0.7405-6.1077 1.3374 0.3871 56.961 0.3872 56.961 3.0506 4.906 3.0507 4.906 6.8778 3.4273 6.8778 3.4274h29.784l7.0796 5.5688 1.967 3.8039 1.9671 3.8038 1.3751 9.6961 1.3752 9.696-2.9296 14.112-4.2587 4.5156-4.2588 4.5156-14.624 4.599-38.667 0.964zm138.52-1.712-4-1.0664-8.4092-4.3814-6.2574-10.065v-216l2.7315-4.6497 2.7314-4.6497 6.5019-4.017 6.5018-4.0169h32.641l11.559 8.0497 5.3334 10.617 0.7304 206.14-1.3624 5.0595-1.3624 5.0594-3.0073 4.4627-3.0074 4.4626-4.2722 2.4951-4.2723 2.4951-28.78 1.0663zm584-0.4508-4-1.3944-7.5714-7.0006-4.32-8-0.108-313.33 1.0902-6.3896 1.0901-6.3896 7.953-9.058 9.8667-3.4773 28 0.164 12.246 5.4808 2.887 4.0546 2.8871 4.0545 1.2374 11.56 0.6845 38.667 0.6844 38.667 0.04 28.667h2.6885l18.584-15.604 16.92-8.3295 17.141-4.6268h33.333l17.333 4.5741 22.667 11.077 18.667 18.91 4.503 7.678 4.5029 7.6779 6.3678 17.543 4.5666 24.434 0.06 144-3.1571 5.5095-3.1572 5.5094-4.8428 2.6746-4.8429 2.6745-23.382 1.8754-13.255-1.823-8.5514-5.7628-2.7388-4.6622-2.7387-4.6621-0.7708-67.333-0.7707-67.333-2.378-7.3333-2.3779-7.3333-3.1388-6.1985-3.1387-6.1984-10.092-8.3488-8.6667-2.734-8.6666-2.7341-9.3334-0.1551-9.3333-0.1552-15.2 4.8472-15.207 12.344-7.462 13.333-4.1306 15.894v119.31l-1.4522 6.7713-1.4521 6.7712-6.9854 8.3016-10.777 4.8953-28-0.152zm-582.9-278.9-5.5677-1.8174-8.9992-5.5618-8.1532-11.445-1.6528-5.0808-1.6528-5.0809-0.1334-7.5858-0.1333-7.5858 4.6708-13.788 5.4237-6.1617 5.4238-6.1617 5.5043-2.9443 5.5043-2.9442h28l10.967 5.8672 11.98 13.325 1.8589 6.4038 1.859 6.4038-0.1667 6.8229-0.1666 6.823-4.4216 13.312-9.4676 11.061-12.257 7.1829-22.853 0.7728zm-1326.8-425.56-2.9737-2.0829v-636.77l4.8766-4.4133h393.28l4.9692 3.6336-2.8128 4.5166-2.8128 4.5166-20.02 33.911-23.848 48.756-13.694 33.999-10.415 34.001-3.3596 13.333-3.3596 13.333-2.7042 12.667-2.7042 12.667-3.2939 22-3.2939 22-1.3992 18.667-1.3992 18.667 0.016 44 2.6659 32 3.4117 22.667 3.4117 22.667 3.2598 16.257 3.2598 16.258 6.5386 25.166 15.816 47.653 11.037 25.003 11.346 22.7 11.346 22.7 5.6013 9.465 5.6013 9.4651 16.794 25.188-0.39189 2.7392-0.3919 2.7392-69.333 1.3334-332.05 0.6812zm1330.1 1.0539-6.2169-0.4555-1.5566-4.0566 1.5065-2.9034 1.5064-2.9034 6.334-8.6667 6.334-8.6666 14.039-25.333 24.646-49.333 5.5467-12.987 5.5468-12.987 7.3402-23.013 7.3403-23.013 3.823-16 3.8231-16 3.3555-17.333 3.3556-17.333 2.8628-16.219 1.9556-19.224 1.9555-19.224v-70.667l-3.2176-24.816-3.2177-24.816-4.7744-21.851-4.7745-21.851-4.1627-15.333-4.1626-15.333-16.713-47.051-10.79-25.254-8.2715-15.847-8.2714-15.847-15.991-29.333-5.4015-7.7667-5.4014-7.7667 1.4085-2.2333 1.4086-2.2333 182.38-0.73533 6 1.4528v4.9769l-10.046 29.82-10.046 29.82-3.2647 12.821-3.2646 12.821-7.3074 42.359 0.042 28.667 0.042 28.667 2.8727 12 2.8726 12 7.7824 22.667 9.813 22.133 9.6391 16.534 10.673 14.667 11.85 13.333 23.01 21.093 18.667 13.829 10.776 6.1045 10.776 6.1045 28.904 12.346 11.255 3.2614 11.254 3.2615h6.6321l4.26-2.0216 4.2601-2.0215 2.4279-4.11 2.4278-4.1101-0.738-4.5477-0.738-4.5478-5.5305-7.7669-21.966-7.2874-27.766-11.603-21.567-12.35-13.333-9.6281-19.99-18.468-6.9182-8.4401-6.9182-8.4402-6.8314-11.31-6.8313-11.31-9.4844-20.528-8.0494-30.844-1.2916-43.388 1.5475-14.972 1.5475-14.972 6.5954-29.594 4.5464-15.946 4.5463-15.946 16.548-46.514 5.0808-10.084 152.12 0.75066 1.8919 2.5882 1.8919 2.5882v635.16l-2.2051 1.83-2.2052 1.8299-373.59 0.108zm-519.98-109.72-11.528-1.0264-5.7533-3.079-5.1806-8.4965v-8l5.3172-8.721 6.6168-3.0148 46.056 2.5789 33.333-1.9899 18.667-2.9552 27.145-5.5677 7.1967 1.8063 3.8292 3.8291 3.8291 3.8292v12l-3.4334 4.0804-3.4334 4.0803-6.8999 2.0769-6.9 2.0768-14.667 2.7018-14.667 2.7017-19.333 1.1514-19.333 1.1513-29.333-0.188zm-189.8-55.922-0.8158-1.32-15.68-95.36-14.991-96-20.924-132-0.8497-6.1278-0.8497-6.1279 1.7175-1.3883 1.7176-1.3883 26.667-4.2625 38.667-6.8041 150.31-25.234h8.9324l1.3254 2.4764 1.3253 2.4764-1.4263 5.1903-1.4262 5.1903-15.486 38.667-9.5512 20.814 0.094 11.186 1.6195 2.8207 1.6194 2.8207 41.333 37.282 5.0254 5.6828-0.7479 4.6085-0.7478 4.6085-19.322 35.51-6.4372 12.376-6.4372 12.376v7.0146l3.2919 5.6171 3.2918 5.6171 42.75 39.175-0.01 4.9126-0.01 4.9125-23.724 68.348-1.4144 2.6429-1.4145 2.643-7.4352 2.9201-38.667 5.4965-41.333 7.8744-60 9.5726-35.252 6.5021h-3.9243zm431.99-7.9721-53.333-9.0082-38.667-6.8695-77.333-12.247-6-2.526v-4.7895l19.483-33.268 15.152-23.376 2.8219-5.5313 2.8218-5.5313-1.4436-8.8958-15.372-23.333-18.128-27.75v-6.6653l7.1904-9.5851 27.671-31.45 6.5692-8.6792 6.5693-8.6792v-10.075l-9.5539-14.558-9.5539-14.559-8.4485-12.667-8.4484-12.667v-6.127l27.959-41.331 6.4167-8.5423 9.4824-18.985 5.3414-1.3968 62.134 10.383 53.333 9.4989 11.333 2.8166v2.6112l-7.5243 12.203-7.5244 12.203-17.045 25.333-17.045 25.333-38.655 60.349-24.283 43.651-1.4336 5.3229-1.4336 5.3228 0.586 7.0658 0.5859 7.0658 2.6472 3.6113 2.6472 3.6114 9.1437 4.8143 12-1.0318 9.5441-4.5366 21.123-16.914 41.484-40.998 54.516-57.399 12.566-13.967 12.566-13.967 10.39-11 10.39-11h2.756v9.5826l-8.0033 48.875-8.0033 48.875-1.3512 8-1.3513 8-7.9483 51.333-7.9483 51.333-3.3621 19.333-3.3622 19.333-2.71 18-2.7101 18-0.8047 2.6666-0.8046 2.6667-2.974 1.9592-0.6666-0.1216-0.6667-0.1215zm486.1-513.92-1.5558-1.8746 12.058-44.917 2.7029-15.835 2.7028-15.835 1.1512-18.832 1.1513-18.832-2.0528-28.009-1.8748-13.324-6.2024-26.667-9.4422-31.053-13.779-30.28-1.5721-2-1.572-2-11.29-18.667-3.1966-5.3219-9.6407-12.011-1.83-5.8667 1.9408-3.7333 1.9407-3.7333 12.52-12.667h5.9382l5.2932 6 1.9192 2.8196 1.9191 2.8196 8.6385 12.514 8.6384 12.514 4.809 8 15.615 32 4.9111 12.403 4.9112 12.403 10.38 40.528 2.0703 12.667 2.0702 12.667 1.6622 37.333-1.5681 18-1.5682 18-1.9656 12.667-1.9657 12.667-9.6802 41.163-6.17 6.17h-26.461zm-83.587-328.98-5.1834-4.1854-24-15.908-22.667-11.411-23.861-8.4207-24.139-5.4267-29.542-1.5025-22.458 3.1799-25.333 6.744-27.184 11.783h-10.457l-6.9621-5.4764-1.5374-5.1316-1.5375-5.1316 5.0108-10.26 25.333-12.576 20-6.6764 25.333-5.3025 25.952-2.7849 32.714 2.7894 28.6 6.3892 24.733 9.8115 25.989 13.258 27.369 18.242 11.667 10.771-2.3978 3.7061-2.3977 3.7061-11.887 14h-5.9761z" fill="#bf562d"/>
</svg>
